<svg height="480pt" viewBox="0 0 480 480" width="480pt" xmlns="http://www.w3.org/2000/svg"><path d="m440 0h-400c-22.054688 0-40 17.945312-40 40v208c0 22.054688 17.945312 40 40 40h112v64c0 2.121094.839844 4.160156 2.34375 5.65625l37.65625 37.65625v76.6875c0 4.414062 3.585938 8 8 8h232c4.414062 0 8-3.585938 8-8v-184c22.054688 0 40-17.945312 40-40v-208c0-22.054688-17.945312-40-40-40zm-272 348.6875v-60.6875h112v48c0 2.121094.839844 4.160156 2.34375 5.65625l32 32 11.3125-11.3125-29.65625-29.65625v-52.6875c0-2.121094-.839844-4.160156-2.34375-5.65625l-46.054688-46.054688c-4.90625-4.90625-7.601562-11.417968-7.601562-18.34375 0-14.304687 11.640625-25.945312 25.945312-25.945312 6.925782 0 13.4375 2.695312 18.34375 7.601562l94.054688 94.054688c1.496094 1.503906 3.535156 2.34375 5.65625 2.34375h40v136h-216v-32c0-2.121094-.839844-4.160156-2.34375-5.65625zm40 115.3125v-24h216v24zm256-216c0 13.230469-10.769531 24-24 24h-52.6875l-91.710938-91.710938c-7.929687-7.929687-18.457031-12.289062-29.65625-12.289062-23.128906 0-41.945312 18.816406-41.945312 41.945312 0 11.199219 4.359375 21.734376 12.289062 29.65625l32.398438 32.398438h-228.6875c-13.230469 0-24-10.769531-24-24v-208c0-13.230469 10.769531-24 24-24h400c13.230469 0 24 10.769531 24 24zm0 0"/><path d="m195.0625 72.609375c-3-1.242187-6.429688-.5625-8.71875 1.734375l-17.480469 17.480469-42.464843-56.625c-3.015626-4.03125-9.78125-4.03125-12.796876 0l-42.472656 56.625-17.480468-17.480469c-2.296876-2.296875-5.738282-2.976562-8.71875-1.734375-2.976563 1.238281-4.929688 4.160156-4.929688 7.390625v88c0 44.113281 35.886719 80 80 80s80-35.886719 80-80v-88c0-3.230469-1.953125-6.152344-4.9375-7.390625zm-128.71875 37.046875c1.640625 1.640625 3.878906 2.449219 6.222656 2.328125 2.3125-.167969 4.441406-1.328125 5.832032-3.175781l41.601562-55.472656 41.601562 55.472656c1.390626 1.855468 3.519532 3.015625 5.832032 3.175781 2.335937.160156 4.582031-.679687 6.222656-2.328125l10.34375-10.34375v28.6875h-128v-28.6875zm117.65625 58.34375c0 35.289062-28.710938 64-64 64s-64-28.710938-64-64v-24h128zm0 0"/><path d="m112 96h16v16h-16zm0 0"/><path d="m120 216c26.472656 0 48-21.527344 48-48h-16c0 17.648438-14.351562 32-32 32s-32-14.351562-32-32h-16c0 26.472656 21.527344 48 48 48zm0 0"/><path d="m416 80h-64c-13.230469 0-24 10.769531-24 24v32c0 13.230469 10.769531 24 24 24h64c13.230469 0 24-10.769531 24-24v-32c0-13.230469-10.769531-24-24-24zm8 24v8h-16v-16h8c4.40625 0 8 3.59375 8 8zm-48 8v-16h16v16zm16 16v16h-16v-16zm-40-32h8v16h-16v-8c0-4.40625 3.59375-8 8-8zm-8 40v-8h16v16h-8c-4.40625 0-8-3.59375-8-8zm72 8h-8v-16h16v8c0 4.40625-3.59375 8-8 8zm0 0"/><path d="m408 176h16v16h-16zm0 0"/><path d="m376 176h16v16h-16zm0 0"/><path d="m344 176h16v16h-16zm0 0"/></svg>