<?xml version="1.0" standalone="no"?>
<!DOCTYPE svg PUBLIC "-//W3C//DTD SVG 20010904//EN"
 "http://www.w3.org/TR/2001/REC-SVG-20010904/DTD/svg10.dtd">
<svg version="1.0" xmlns="http://www.w3.org/2000/svg"
 width="799.000000pt" height="393.000000pt" viewBox="0 0 799.000000 393.000000"
 preserveAspectRatio="xMidYMid meet">
<metadata>
Created by potrace 1.15, written by Peter Selinger 2001-2017
</metadata>
<g transform="translate(0.000000,393.000000) scale(0.100000,-0.100000)"
fill="#ffffff" stroke="none">
<path d="M4 3913 c4 -10 345 -894 758 -1965 l752 -1948 88 0 88 0 0 154 0 155
-110 318 c-60 175 -366 988 -678 1808 l-569 1490 -168 3 c-157 2 -167 1 -161
-15z"/>
<path d="M1770 1965 l0 -1965 150 0 150 0 -1 1463 c0 1266 -2 1508 -18 1802
-10 187 -17 341 -16 342 1 2 321 -808 711 -1800 l709 -1802 145 -3 145 -2 710
1804 c390 992 711 1804 712 1803 1 -2 -7 -169 -17 -372 -18 -329 -20 -527 -20
-1802 l0 -1433 150 0 150 0 0 1965 0 1965 -227 0 -228 0 -592 -1493 c-493
-1242 -608 -1540 -684 -1777 -50 -157 -92 -287 -94 -288 -2 -2 -46 127 -98
286 -76 235 -207 573 -687 1781 l-593 1491 -229 0 -228 0 0 -1965z"/>
<path d="M5513 3878 c4 -29 7 -94 7 -145 l0 -92 668 -4 c649 -3 670 -4 767
-26 381 -86 576 -301 601 -665 8 -106 -9 -251 -38 -340 -68 -208 -214 -346
-443 -421 -176 -57 -196 -58 -902 -62 l-653 -4 0 -140 0 -139 593 0 c325 0
646 -5 712 -11 435 -37 701 -202 798 -497 50 -152 53 -370 6 -527 -32 -107
-83 -191 -170 -277 -64 -63 -95 -85 -181 -127 -232 -113 -308 -121 -1119 -121
l-639 0 0 -140 0 -140 649 0 c526 0 672 3 768 15 219 29 376 75 535 158 357
184 535 509 515 936 -12 263 -96 452 -275 623 -124 119 -248 185 -436 233
l-89 23 59 17 c314 91 525 305 610 621 16 57 19 105 19 269 0 241 -16 317
-102 494 -50 104 -64 123 -151 211 -138 138 -281 216 -495 269 -199 50 -252
53 -956 58 l-664 5 6 -54z"/>
</g>
</svg>
